<svg xmlns="http://www.w3.org/2000/svg" width="64" height="64" viewBox="0 0 64 64" role="img" aria-label="shoes">
<title>shoes — original classic 2D game sprite</title>
<g stroke="#243042" stroke-width="2.5" stroke-linecap="round" stroke-linejoin="round">
<path d="M10 13H25L30 31L39 38V48H5V38L9 31Z" fill="#d95d39" /><path d="M33 19H48L53 37L61 44V55H28V43L33 37Z" fill="#4977a5" /><path d="M5 46H39V54H5ZM28 53H61V60H28Z" fill="#fff4d2" /><path d="M13 15H21L22 31H13Z" fill="#fff4d2" /><path d="M37 21H44L47 37H37Z" fill="#fff4d2" /><path d="M12 26H24M14 31H27M35 32H48M38 37H51" fill="none" stroke="#243042" stroke-width="2"/>
</g>
</svg>
