<svg xmlns="http://www.w3.org/2000/svg" width="720" height="1120" viewBox="0 0 360 560" role="img" aria-label="丰收小镇原创游戏封面"><title>丰收小镇</title><rect x="0" y="0" width="360" height="560" rx="0" fill="#a1d673" stroke="none" stroke-width="1"/><path d="M0 164L360 115V228L0 295Z" fill="#88c362" stroke="none" stroke-width="1" stroke-linejoin="round"/><path d="M-40 389L335 167L390 199L19 427Z" fill="#e5c88b" stroke="none" stroke-width="1" stroke-linejoin="round"/><g transform="translate(106 270) scale(1.15) rotate(0)"><path d="M-66 0V-67L0 -109L63 -68V0Z" fill="#d65c4b" stroke="none" stroke-width="1" stroke-linejoin="round"/><path d="M-77 -64L0 -119L79 -65L65 -52L0 -94L-67 -48Z" fill="#44a98f" stroke="none" stroke-width="1" stroke-linejoin="round"/><rect x="-42" y="-49" width="68" height="58" rx="0" fill="#f9edce" stroke="none" stroke-width="1"/><rect x="-36" y="-43" width="55" height="49" rx="0" fill="#b84c42" stroke="none" stroke-width="1"/><path d="M-36 -43L19 6M19 -43L-36 6" fill="none" stroke="#f4e6cc" stroke-width="5" stroke-linejoin="round"/><rect x="30" y="-38" width="21" height="24" rx="0" fill="#f5e9d4" stroke="none" stroke-width="1"/><rect x="34" y="-34" width="13" height="16" rx="0" fill="#588596" stroke="none" stroke-width="1"/></g><path d="M86 318L131 341L86 364L41 341Z" fill="#8a5735" stroke="none" stroke-width="1" stroke-linejoin="round"/><path d="M41 341L86 364L86 373L41 350Z" fill="#72412f" stroke="none" stroke-width="1" stroke-linejoin="round"/><path d="M131 341L86 364L86 373L131 350Z" fill="#633d29" stroke="none" stroke-width="1" stroke-linejoin="round"/><path d="M66 340q-17 -15-4 -18q10-1 4 18q0-22 13-19q9 7-13 19" fill="#398e42" stroke="none" stroke-width="1" stroke-linejoin="round"/><path d="M59 328Q66 319 73 328Q72 342 66 344Q60 342 59 328" fill="#ef5350" stroke="none" stroke-width="1" stroke-linejoin="round"/><path d="M89 340q-17 -15-4 -18q10-1 4 18q0-22 13-19q9 7-13 19" fill="#398e42" stroke="none" stroke-width="1" stroke-linejoin="round"/><path d="M82 328Q89 319 96 328Q95 342 89 344Q83 342 82 328" fill="#ef5350" stroke="none" stroke-width="1" stroke-linejoin="round"/><path d="M66 350q-17 -15-4 -18q10-1 4 18q0-22 13-19q9 7-13 19" fill="#398e42" stroke="none" stroke-width="1" stroke-linejoin="round"/><path d="M59 338Q66 329 73 338Q72 352 66 354Q60 352 59 338" fill="#ef5350" stroke="none" stroke-width="1" stroke-linejoin="round"/><path d="M89 350q-17 -15-4 -18q10-1 4 18q0-22 13-19q9 7-13 19" fill="#398e42" stroke="none" stroke-width="1" stroke-linejoin="round"/><path d="M82 338Q89 329 96 338Q95 352 89 354Q83 352 82 338" fill="#ef5350" stroke="none" stroke-width="1" stroke-linejoin="round"/><path d="M176 292L221 315L176 338L131 315Z" fill="#8a5735" stroke="none" stroke-width="1" stroke-linejoin="round"/><path d="M131 315L176 338L176 347L131 324Z" fill="#72412f" stroke="none" stroke-width="1" stroke-linejoin="round"/><path d="M221 315L176 338L176 347L221 324Z" fill="#633d29" stroke="none" stroke-width="1" stroke-linejoin="round"/><path d="M156 314q-17 -15-4 -18q10-1 4 18q0-22 13-19q9 7-13 19" fill="#398e42" stroke="none" stroke-width="1" stroke-linejoin="round"/><path d="M149 302Q156 293 163 302Q162 316 156 318Q150 316 149 302" fill="#ef5350" stroke="none" stroke-width="1" stroke-linejoin="round"/><path d="M179 314q-17 -15-4 -18q10-1 4 18q0-22 13-19q9 7-13 19" fill="#398e42" stroke="none" stroke-width="1" stroke-linejoin="round"/><path d="M172 302Q179 293 186 302Q185 316 179 318Q173 316 172 302" fill="#ef5350" stroke="none" stroke-width="1" stroke-linejoin="round"/><path d="M156 324q-17 -15-4 -18q10-1 4 18q0-22 13-19q9 7-13 19" fill="#398e42" stroke="none" stroke-width="1" stroke-linejoin="round"/><path d="M149 312Q156 303 163 312Q162 326 156 328Q150 326 149 312" fill="#ef5350" stroke="none" stroke-width="1" stroke-linejoin="round"/><path d="M179 324q-17 -15-4 -18q10-1 4 18q0-22 13-19q9 7-13 19" fill="#398e42" stroke="none" stroke-width="1" stroke-linejoin="round"/><path d="M172 312Q179 303 186 312Q185 326 179 328Q173 326 172 312" fill="#ef5350" stroke="none" stroke-width="1" stroke-linejoin="round"/><path d="M109 356L154 379L109 402L64 379Z" fill="#8a5735" stroke="none" stroke-width="1" stroke-linejoin="round"/><path d="M64 379L109 402L109 411L64 388Z" fill="#72412f" stroke="none" stroke-width="1" stroke-linejoin="round"/><path d="M154 379L109 402L109 411L154 388Z" fill="#633d29" stroke="none" stroke-width="1" stroke-linejoin="round"/><path d="M89 378q-17 -15-4 -18q10-1 4 18q0-22 13-19q9 7-13 19" fill="#398e42" stroke="none" stroke-width="1" stroke-linejoin="round"/><ellipse cx="89" cy="368" rx="5" ry="10" fill="#f4cf3d"/><path d="M112 378q-17 -15-4 -18q10-1 4 18q0-22 13-19q9 7-13 19" fill="#398e42" stroke="none" stroke-width="1" stroke-linejoin="round"/><ellipse cx="112" cy="368" rx="5" ry="10" fill="#f4cf3d"/><path d="M89 388q-17 -15-4 -18q10-1 4 18q0-22 13-19q9 7-13 19" fill="#398e42" stroke="none" stroke-width="1" stroke-linejoin="round"/><ellipse cx="89" cy="378" rx="5" ry="10" fill="#f4cf3d"/><path d="M112 388q-17 -15-4 -18q10-1 4 18q0-22 13-19q9 7-13 19" fill="#398e42" stroke="none" stroke-width="1" stroke-linejoin="round"/><ellipse cx="112" cy="378" rx="5" ry="10" fill="#f4cf3d"/><path d="M199 330L244 353L199 376L154 353Z" fill="#8a5735" stroke="none" stroke-width="1" stroke-linejoin="round"/><path d="M154 353L199 376L199 385L154 362Z" fill="#72412f" stroke="none" stroke-width="1" stroke-linejoin="round"/><path d="M244 353L199 376L199 385L244 362Z" fill="#633d29" stroke="none" stroke-width="1" stroke-linejoin="round"/><path d="M179 352q-17 -15-4 -18q10-1 4 18q0-22 13-19q9 7-13 19" fill="#398e42" stroke="none" stroke-width="1" stroke-linejoin="round"/><ellipse cx="179" cy="342" rx="5" ry="10" fill="#f4cf3d"/><path d="M202 352q-17 -15-4 -18q10-1 4 18q0-22 13-19q9 7-13 19" fill="#398e42" stroke="none" stroke-width="1" stroke-linejoin="round"/><ellipse cx="202" cy="342" rx="5" ry="10" fill="#f4cf3d"/><path d="M179 362q-17 -15-4 -18q10-1 4 18q0-22 13-19q9 7-13 19" fill="#398e42" stroke="none" stroke-width="1" stroke-linejoin="round"/><ellipse cx="179" cy="352" rx="5" ry="10" fill="#f4cf3d"/><path d="M202 362q-17 -15-4 -18q10-1 4 18q0-22 13-19q9 7-13 19" fill="#398e42" stroke="none" stroke-width="1" stroke-linejoin="round"/><ellipse cx="202" cy="352" rx="5" ry="10" fill="#f4cf3d"/><path d="M132 394L177 417L132 440L87 417Z" fill="#8a5735" stroke="none" stroke-width="1" stroke-linejoin="round"/><path d="M87 417L132 440L132 449L87 426Z" fill="#72412f" stroke="none" stroke-width="1" stroke-linejoin="round"/><path d="M177 417L132 440L132 449L177 426Z" fill="#633d29" stroke="none" stroke-width="1" stroke-linejoin="round"/><path d="M112 416q-17 -15-4 -18q10-1 4 18q0-22 13-19q9 7-13 19" fill="#398e42" stroke="none" stroke-width="1" stroke-linejoin="round"/><path d="M105 404Q112 395 119 404Q118 418 112 420Q106 418 105 404" fill="#ef5350" stroke="none" stroke-width="1" stroke-linejoin="round"/><path d="M135 416q-17 -15-4 -18q10-1 4 18q0-22 13-19q9 7-13 19" fill="#398e42" stroke="none" stroke-width="1" stroke-linejoin="round"/><path d="M128 404Q135 395 142 404Q141 418 135 420Q129 418 128 404" fill="#ef5350" stroke="none" stroke-width="1" stroke-linejoin="round"/><path d="M112 426q-17 -15-4 -18q10-1 4 18q0-22 13-19q9 7-13 19" fill="#398e42" stroke="none" stroke-width="1" stroke-linejoin="round"/><path d="M105 414Q112 405 119 414Q118 428 112 430Q106 428 105 414" fill="#ef5350" stroke="none" stroke-width="1" stroke-linejoin="round"/><path d="M135 426q-17 -15-4 -18q10-1 4 18q0-22 13-19q9 7-13 19" fill="#398e42" stroke="none" stroke-width="1" stroke-linejoin="round"/><path d="M128 414Q135 405 142 414Q141 428 135 430Q129 428 128 414" fill="#ef5350" stroke="none" stroke-width="1" stroke-linejoin="round"/><path d="M222 368L267 391L222 414L177 391Z" fill="#8a5735" stroke="none" stroke-width="1" stroke-linejoin="round"/><path d="M177 391L222 414L222 423L177 400Z" fill="#72412f" stroke="none" stroke-width="1" stroke-linejoin="round"/><path d="M267 391L222 414L222 423L267 400Z" fill="#633d29" stroke="none" stroke-width="1" stroke-linejoin="round"/><path d="M202 390q-17 -15-4 -18q10-1 4 18q0-22 13-19q9 7-13 19" fill="#398e42" stroke="none" stroke-width="1" stroke-linejoin="round"/><path d="M195 378Q202 369 209 378Q208 392 202 394Q196 392 195 378" fill="#ef5350" stroke="none" stroke-width="1" stroke-linejoin="round"/><path d="M225 390q-17 -15-4 -18q10-1 4 18q0-22 13-19q9 7-13 19" fill="#398e42" stroke="none" stroke-width="1" stroke-linejoin="round"/><path d="M218 378Q225 369 232 378Q231 392 225 394Q219 392 218 378" fill="#ef5350" stroke="none" stroke-width="1" stroke-linejoin="round"/><path d="M202 400q-17 -15-4 -18q10-1 4 18q0-22 13-19q9 7-13 19" fill="#398e42" stroke="none" stroke-width="1" stroke-linejoin="round"/><path d="M195 388Q202 379 209 388Q208 402 202 404Q196 402 195 388" fill="#ef5350" stroke="none" stroke-width="1" stroke-linejoin="round"/><path d="M225 400q-17 -15-4 -18q10-1 4 18q0-22 13-19q9 7-13 19" fill="#398e42" stroke="none" stroke-width="1" stroke-linejoin="round"/><path d="M218 388Q225 379 232 388Q231 402 225 404Q219 402 218 388" fill="#ef5350" stroke="none" stroke-width="1" stroke-linejoin="round"/><g transform="translate(281 342) scale(1) rotate(0)"><ellipse cx="0" cy="24" rx="52" ry="12" fill="#36465330"/><rect x="-47" y="-8" width="59" height="31" rx="4" fill="#398fdd" stroke="none" stroke-width="1"/><rect x="7" y="-26" width="38" height="50" rx="7" fill="#3189d7" stroke="none" stroke-width="1"/><rect x="15" y="-19" width="23" height="18" rx="3" fill="#b5ebf2" stroke="none" stroke-width="1"/><rect x="-42" y="-3" width="47" height="18" rx="0" fill="#74b6e9" stroke="none" stroke-width="1"/><circle cx="-28" cy="24" r="12" fill="#344453"/><circle cx="-28" cy="24" r="6" fill="#afc9cc"/><circle cx="31" cy="24" r="12" fill="#344453"/><circle cx="31" cy="24" r="6" fill="#afc9cc"/></g><g transform="translate(15 282) scale(1.2) rotate(0)"><ellipse cx="0" cy="8" rx="17" ry="7" fill="#174e5830"/><rect x="-4" y="-14" width="8" height="22" rx="3" fill="#95653c" stroke="none" stroke-width="1"/><circle cx="-8" cy="-24" r="14" fill="#489c56"/><circle cx="8" cy="-26" r="17" fill="#5fba54"/><circle cx="0" cy="-42" r="16" fill="#89d368"/></g><g transform="translate(327 181) scale(1.3) rotate(0)"><ellipse cx="0" cy="8" rx="17" ry="7" fill="#174e5830"/><rect x="-4" y="-14" width="8" height="22" rx="3" fill="#95653c" stroke="none" stroke-width="1"/><circle cx="-8" cy="-24" r="14" fill="#489c56"/><circle cx="8" cy="-26" r="17" fill="#5fba54"/><circle cx="0" cy="-42" r="16" fill="#89d368"/></g><g transform="translate(309 428) scale(1.2) rotate(0)"><ellipse cx="0" cy="8" rx="17" ry="7" fill="#174e5830"/><rect x="-4" y="-14" width="8" height="22" rx="3" fill="#95653c" stroke="none" stroke-width="1"/><circle cx="-8" cy="-24" r="14" fill="#489c56"/><circle cx="8" cy="-26" r="17" fill="#5fba54"/><circle cx="0" cy="-42" r="16" fill="#89d368"/></g><g transform="translate(68 482) scale(0.85) rotate(0)"><ellipse cx="0" cy="8" rx="17" ry="7" fill="#174e5830"/><rect x="-4" y="-14" width="8" height="22" rx="3" fill="#95653c" stroke="none" stroke-width="1"/><circle cx="-8" cy="-24" r="14" fill="#489c56"/><circle cx="8" cy="-26" r="17" fill="#5fba54"/><circle cx="0" cy="-42" r="16" fill="#89d368"/></g><g transform="translate(247 159) scale(0.75) rotate(0)"><ellipse cx="0" cy="8" rx="17" ry="7" fill="#174e5830"/><rect x="-4" y="-14" width="8" height="22" rx="3" fill="#95653c" stroke="none" stroke-width="1"/><circle cx="-8" cy="-24" r="14" fill="#489c56"/><circle cx="8" cy="-26" r="17" fill="#5fba54"/><circle cx="0" cy="-42" r="16" fill="#89d368"/></g><rect x="0" y="0" width="360" height="132" rx="0" fill="#fff9e8" stroke="none" stroke-width="1"/><text x="24" y="33" font-family="system-ui,sans-serif" font-size="9" font-weight="850" fill="#73847d" letter-spacing="1.7">AIRVANA ARCADE  /  NEW WORLDS</text><text x="24" y="80" font-family="system-ui,sans-serif" font-size="32" font-weight="850" fill="#274351" >丰收小镇</text><text x="25" y="107" font-family="system-ui,sans-serif" font-size="11" font-weight="850" fill="#668077" >种植经营 · 3 个独立关卡</text><rect x="0" y="515" width="360" height="45" rx="0" fill="#fff9e8" stroke="none" stroke-width="1"/><text x="24" y="542" font-family="system-ui,sans-serif" font-size="10" font-weight="850" fill="#637872" letter-spacing="1.4">HARVEST & DELIVER</text><text x="333" y="542" font-family="system-ui,sans-serif" font-size="14" font-weight="850" fill="#355966" text-anchor="end">02</text></svg>
