<svg xmlns="http://www.w3.org/2000/svg" width="360" height="560" viewBox="0 0 360 560"><rect x="0" y="0" width="360" height="560" rx="0" fill="#F6E6DB"/><rect x="0" y="0" width="360" height="94" rx="0" fill="#B58190"/><rect x="22" y="96" width="316" height="380" rx="25" fill="#FFF5E7" stroke="#D7A9A4" stroke-width="3"/><rect x="47" y="145" width="265" height="15" rx="5" fill="#AD795C"/><path d="M73 151L174 287L285 151" fill="none" stroke="#B18D5C" stroke-width="5" stroke-linecap="round" stroke-linejoin="round"/><circle cx="73" cy="151" r="9" fill="#758D9F"/><circle cx="285" cy="151" r="9" fill="#758D9F"/><circle cx="174" cy="287" r="27" fill="#D98BA9" stroke="#9F546F" stroke-width="3"/><path d="M154 274Q186 268 176 308M166 263Q198 275 188 294" fill="none" stroke="#FFE0BC" stroke-width="8" stroke-linecap="round" stroke-linejoin="round"/><path d="M152 403Q180 358 208 403L231 470H129Z" fill="#DCA653" stroke="#8F643D" stroke-width="3" stroke-linecap="round" stroke-linejoin="round"/><circle cx="162" cy="417" r="8" fill="white"/><circle cx="198" cy="417" r="8" fill="white"/><circle cx="162" cy="417" r="4" fill="#263F50"/><circle cx="161" cy="416" r="1.3" fill="white"/><circle cx="198" cy="417" r="4" fill="#263F50"/><circle cx="197" cy="416" r="1.3" fill="white"/><path d="M159 442Q180 470 203 442Z" fill="#774952"/><circle cx="138" cy="431" r="12" fill="#F1C979"/><circle cx="222" cy="431" r="12" fill="#F1C979"/><path d="M130 322l4 7 8 1-6 6 2 9-8-5-8 5 2-9-6-6 8-1Z" fill="#F5C44B" stroke="#C89535" stroke-width="1" stroke-linecap="round" stroke-linejoin="round"/><path d="M250 310l4 7 8 1-6 6 2 9-8-5-8 5 2-9-6-6 8-1Z" fill="#F5C44B" stroke="#C89535" stroke-width="1" stroke-linecap="round" stroke-linejoin="round"/><path d="M180 347l4 7 8 1-6 6 2 9-8-5-8 5 2-9-6-6 8-1Z" fill="#F5C44B" stroke="#C89535" stroke-width="1" stroke-linecap="round" stroke-linejoin="round"/></svg>
