<svg xmlns="http://www.w3.org/2000/svg" viewBox="0 0 512 512" role="img" aria-label="灰猫与金条图标">
  <defs>
    <linearGradient id="b" x1="0" y1="0" x2="0" y2="1"><stop stop-color="#67d8ff"/><stop offset="1" stop-color="#0879da"/></linearGradient>
    <linearGradient id="g" x1="0" y1="0" x2="1" y2="1"><stop stop-color="#fff77b"/><stop offset=".4" stop-color="#ffc125"/><stop offset="1" stop-color="#e78a00"/></linearGradient>
  </defs>
  <rect width="512" height="512" rx="112" fill="url(#b)"/>
  <path d="M107 422l56-270 91 43 100-38 48 265z" fill="#ed4e39" stroke="#fff" stroke-width="18" stroke-linejoin="round"/>
  <path d="M143 177l17-84 69 54 59-1 68-55 18 92c28 32 42 69 36 111-9 72-68 125-151 125-88 0-156-58-158-136-1-40 13-75 42-106z" fill="#768791" stroke="#fff" stroke-width="18" stroke-linejoin="round"/>
  <path d="M163 106l14 72 48-27zM350 103l-14 74-44-28z" fill="#ef9eb0"/>
  <ellipse cx="203" cy="250" rx="28" ry="38" fill="#fff"/><ellipse cx="313" cy="250" rx="28" ry="38" fill="#fff"/>
  <circle cx="211" cy="258" r="12" fill="#17415b"/><circle cx="305" cy="258" r="12" fill="#17415b"/>
  <path d="M238 303l21 15 21-15-21-13z" fill="#ef8b96"/>
  <path d="M226 338q33 27 66-1" fill="none" stroke="#263d4b" stroke-width="13" stroke-linecap="round"/>
  <rect x="336" y="317" width="126" height="74" rx="18" transform="rotate(-9 336 317)" fill="url(#g)" stroke="#fff" stroke-width="13"/>
</svg>
