<?xml version="1.0" encoding="UTF-8"?>
<svg xmlns="http://www.w3.org/2000/svg" viewBox="0 0 900 1600" role="img" aria-labelledby="title description">
  <title id="title">jungle-dive original cover art</title>
  <desc id="description">Airvana code-native vector game artwork. No generative image or third-party asset.</desc>
  <defs>
    <linearGradient id="background" x1="0" y1="0" x2="1" y2="1"><stop stop-color="#092126"/><stop offset=".58" stop-color="#41A99C" stop-opacity=".42"/><stop offset="1" stop-color="#070A0D"/></linearGradient>
    <radialGradient id="light"><stop stop-color="#E0A648" stop-opacity=".48"/><stop offset="1" stop-color="#E0A648" stop-opacity="0"/></radialGradient>
    <filter id="shadow" x="-30%" y="-30%" width="160%" height="180%"><feDropShadow dx="0" dy="24" stdDeviation="24" flood-color="#05070A" flood-opacity=".44"/></filter>
    <filter id="glow" x="-100%" y="-100%" width="300%" height="300%"><feGaussianBlur stdDeviation="8" result="blur"/><feMerge><feMergeNode in="blur"/><feMergeNode in="SourceGraphic"/></feMerge></filter>
  </defs>
  <rect width="900" height="1600" fill="url(#background)"/>
  <circle cx="653" cy="330" r="380" fill="url(#light)"/>
  <path d="M0 220 Q180 130 350 220 T900 180" fill="none" stroke="#FFFFFF" stroke-opacity=".08" stroke-width="3"/>
  
    <circle cx="310" cy="737" r="38" fill="#41A99C" fill-opacity="0.42"/><circle cx="289" cy="1001" r="37" fill="#E0A648" fill-opacity="0.56"/><circle cx="268" cy="974" r="48" fill="#41A99C" fill-opacity="0.55"/><circle cx="478" cy="948" r="46" fill="#E0A648" fill-opacity="0.54"/><circle cx="457" cy="1212" r="45" fill="#41A99C" fill-opacity="0.68"/><circle cx="436" cy="1185" r="18" fill="#E0A648" fill-opacity="0.66"/><circle cx="646" cy="1159" r="17" fill="#41A99C" fill-opacity="0.65"/><circle cx="625" cy="442" r="16" fill="#E0A648" fill-opacity="0.79"/><circle cx="835" cy="416" r="26" fill="#41A99C" fill-opacity="0.77"/><circle cx="813" cy="679" r="25" fill="#E0A648" fill-opacity="0.76"/><circle cx="792" cy="653" r="35" fill="#41A99C" fill-opacity="0.38"/><circle cx="222" cy="627" r="34" fill="#E0A648" fill-opacity="0.37"/><circle cx="201" cy="890" r="33" fill="#41A99C" fill-opacity="0.51"/><circle cx="180" cy="864" r="43" fill="#E0A648" fill-opacity="0.49"/><circle cx="390" cy="837" r="42" fill="#41A99C" fill-opacity="0.48"/><circle cx="369" cy="1101" r="41" fill="#E0A648" fill-opacity="0.62"/><circle cx="579" cy="1074" r="13" fill="#41A99C" fill-opacity="0.60"/><circle cx="558" cy="1048" r="12" fill="#E0A648" fill-opacity="0.59"/>
    <path d="M150 1220 Q450 980 750 1220 L690 1390 Q450 1290 210 1390Z" fill="#EDF0E7" fill-opacity=".9" filter="url(#shadow)"/>
    <circle cx="450" cy="1070" r="120" fill="#41A99C"/><path d="M390 1070 L450 970 L510 1070 L450 1170Z" fill="#F5E6B2"/>
    <path d="M450 900 V590" stroke="#E0A648" stroke-width="22" stroke-linecap="round"/><circle cx="450" cy="520" r="58" fill="#E0A648" filter="url(#glow)"/>
  <rect x="34" y="34" width="832" height="1532" rx="64" fill="none" stroke="#FFFFFF" stroke-opacity=".12" stroke-width="4"/>
</svg>