<svg xmlns="http://www.w3.org/2000/svg" width="360" height="560" viewBox="0 0 360 560" shape-rendering="geometricPrecision"><rect x="0" y="0" width="360" height="560" fill="#5F8197"/><rect x="0" y="0" width="360" height="85" fill="#B0CED0"/><rect x="-12" y="39" width="38" height="521" fill="#294354"/><rect x="-7" y="46" width="8" height="8" fill="#B0CED0"/><rect x="9" y="61" width="8" height="8" fill="#45677E"/><rect x="32" y="10" width="38" height="550" fill="#294354"/><rect x="37" y="17" width="8" height="8" fill="#B0CED0"/><rect x="76" y="45" width="38" height="515" fill="#294354"/><rect x="81" y="52" width="8" height="8" fill="#B0CED0"/><rect x="97" y="67" width="8" height="8" fill="#45677E"/><rect x="120" y="16" width="38" height="544" fill="#294354"/><rect x="125" y="23" width="8" height="8" fill="#B0CED0"/><rect x="164" y="51" width="38" height="509" fill="#294354"/><rect x="169" y="58" width="8" height="8" fill="#B0CED0"/><rect x="185" y="73" width="8" height="8" fill="#45677E"/><rect x="208" y="22" width="38" height="538" fill="#294354"/><rect x="213" y="29" width="8" height="8" fill="#B0CED0"/><rect x="252" y="57" width="38" height="503" fill="#294354"/><rect x="257" y="64" width="8" height="8" fill="#B0CED0"/><rect x="273" y="79" width="8" height="8" fill="#45677E"/><rect x="296" y="28" width="38" height="532" fill="#294354"/><rect x="301" y="35" width="8" height="8" fill="#B0CED0"/><rect x="340" y="63" width="38" height="497" fill="#294354"/><rect x="345" y="70" width="8" height="8" fill="#B0CED0"/><rect x="361" y="85" width="8" height="8" fill="#45677E"/><polygon points="132,85 226,85 336,560 18,560" fill="#294354"/><polygon points="141,85 217,85 318,560 36,560" fill="#7D929D"/><rect x="176" y="100" width="6" height="23" fill="#B0CED0"/><rect x="133.7" y="100" width="6" height="23" fill="#E9B15B"/><rect x="222.3" y="100" width="6" height="23" fill="#B0CED0"/><rect x="176" y="142" width="6" height="23" fill="#B0CED0"/><rect x="124.46" y="142" width="6" height="23" fill="#E9B15B"/><rect x="231.54" y="142" width="6" height="23" fill="#B0CED0"/><rect x="176" y="184" width="6" height="23" fill="#B0CED0"/><rect x="115.22" y="184" width="6" height="23" fill="#E9B15B"/><rect x="240.78" y="184" width="6" height="23" fill="#B0CED0"/><rect x="176" y="226" width="6" height="23" fill="#B0CED0"/><rect x="105.98" y="226" width="6" height="23" fill="#E9B15B"/><rect x="250.02" y="226" width="6" height="23" fill="#B0CED0"/><rect x="176" y="268" width="6" height="23" fill="#B0CED0"/><rect x="96.74000000000001" y="268" width="6" height="23" fill="#E9B15B"/><rect x="259.26" y="268" width="6" height="23" fill="#B0CED0"/><rect x="176" y="310" width="6" height="23" fill="#B0CED0"/><rect x="87.5" y="310" width="6" height="23" fill="#E9B15B"/><rect x="268.5" y="310" width="6" height="23" fill="#B0CED0"/><rect x="176" y="352" width="6" height="23" fill="#B0CED0"/><rect x="78.25999999999999" y="352" width="6" height="23" fill="#E9B15B"/><rect x="277.74" y="352" width="6" height="23" fill="#B0CED0"/><rect x="176" y="394" width="6" height="23" fill="#B0CED0"/><rect x="69.02" y="394" width="6" height="23" fill="#E9B15B"/><rect x="286.98" y="394" width="6" height="23" fill="#B0CED0"/><rect x="176" y="436" width="6" height="23" fill="#B0CED0"/><rect x="59.78" y="436" width="6" height="23" fill="#E9B15B"/><rect x="296.22" y="436" width="6" height="23" fill="#B0CED0"/><rect x="176" y="478" width="6" height="23" fill="#B0CED0"/><rect x="50.540000000000006" y="478" width="6" height="23" fill="#E9B15B"/><rect x="305.46" y="478" width="6" height="23" fill="#B0CED0"/><rect x="176" y="520" width="6" height="23" fill="#B0CED0"/><rect x="41.3" y="520" width="6" height="23" fill="#E9B15B"/><rect x="314.7" y="520" width="6" height="23" fill="#B0CED0"/></svg>
